<svg xmlns="http://www.w3.org/2000/svg" viewBox="0 0 599.63 648.72"><defs><style>.cls-1{fill:none;}.cls-2{clip-path:url(#clip-path);}</style><clipPath id="clip-path" transform="translate(0 -0.41)"><rect class="cls-1" x="0.11" width="600" height="650"/></clipPath></defs><title>icon_shop_sel</title><g id="图层_2" data-name="图层 2"><g id="图层_1-2" data-name="图层 1"><g class="cls-2"><path d="M585.35,230.36c-11.71-14-29.47-22-48.71-22H63c-19.19,0-36.95,8-48.67,22S-2.25,263.28,1,282.16L50.4,583c6.39,37.09,40.71,66.12,78.19,66.12H471c37.44,0,71.76-29,78.19-66.29l49.38-300.49c3.3-19.05-1.54-38-13.26-52ZM160.07,393.79a46.34,46.34,0,1,1,46.11-46.34,46.28,46.28,0,0,1-46.11,46.34Zm278.11,0a46.34,46.34,0,1,1,46.13-46.34,46.28,46.28,0,0,1-46.13,46.34Z" transform="translate(0 -0.41)"/></g><path d="M138.37,185.48a23.12,23.12,0,0,0,23.06-23.16C161.43,90,231.18,46.75,298.6,46.75c65.91,0,139.6,49.53,139.6,115.84a23.08,23.08,0,1,0,46.16,0C484.36,67,386.47.41,298.62.41,208.51.41,115.3,61,115.3,162.32a23.13,23.13,0,0,0,23.07,23.16Z" transform="translate(0 -0.41)"/></g></g></svg>
