<svg xmlns="http://www.w3.org/2000/svg" viewBox="0 0 600 600">
    <defs>
        <style>.cls-1{fill:#231815;}</style>
    </defs>
    <title>icon_more_nor</title>
    <g id="图层_2" data-name="图层 2">
        <g id="图层_1-2" data-name="图层 1">
            <path class="cls-1"
                  d="M300,50a250.07,250.07,0,0,1,97.3,480.37A250.08,250.08,0,0,1,202.7,69.63,248.29,248.29,0,0,1,300,50m0-50C134.31,0,0,134.31,0,300S134.31,600,300,600,600,465.69,600,300,465.69,0,300,0Z"/>
            <path class="cls-1" d="M300,266a34,34,0,1,0,34,34,34,34,0,0,0-34-34Z"/>
            <path class="cls-1" d="M441.5,266a34,34,0,1,0,34,34,34,34,0,0,0-34-34Z"/>
            <path class="cls-1" d="M157.5,266a34,34,0,1,0,34,34,34,34,0,0,0-34-34Z"/>
        </g>
    </g>
</svg>
