<svg xmlns="http://www.w3.org/2000/svg" viewBox="0 0 600 600">
    <defs>
        <style>.cls-1{fill:#231815;}</style>
    </defs>
    <title>icon_more_sel</title>
    <g id="图层_2" data-name="图层 2">
        <g id="图层_1-2" data-name="图层 1">
            <path class="cls-1"
                  d="M300,575A275,275,0,0,1,105.55,105.55a275,275,0,1,1,388.9,388.9A273.15,273.15,0,0,1,300,575ZM441.5,241a59,59,0,1,0,59,59A59.07,59.07,0,0,0,441.5,241ZM300,241a59,59,0,1,0,59,59A59.07,59.07,0,0,0,300,241Zm-142.5,0a59,59,0,1,0,59,59A59.07,59.07,0,0,0,157.5,241Z"/>
            <path class="cls-1"
                  d="M300,50a250.07,250.07,0,0,1,97.3,480.37A250.08,250.08,0,0,1,202.7,69.63,248.29,248.29,0,0,1,300,50m70.75,204.76a84,84,0,0,0-142,.79,84,84,0,1,0,0,88.9,84,84,0,0,0,142,.79,84,84,0,1,0,0-90.48M300,0C134.31,0,0,134.31,0,300S134.31,600,300,600,600,465.69,600,300,465.69,0,300,0ZM441.5,334a34,34,0,1,1,34-34,34,34,0,0,1-34,34ZM300,334a34,34,0,1,1,34-34,34,34,0,0,1-34,34Zm-142.5,0a34,34,0,1,1,34-34,34,34,0,0,1-34,34Z"/>
        </g>
    </g>
</svg>
