<svg xmlns="http://www.w3.org/2000/svg" viewBox="0 0 600 600"><title>资源 2</title><g id="图层_2" data-name="图层 2"><g id="图层_1-2" data-name="图层 1"><path d="M593,280.43,329.89,14a39.86,39.86,0,0,0-8-6.88,38.24,38.24,0,0,0-44.42.06,34.16,34.16,0,0,0-7.88,7.4L7,280.45A24.28,24.28,0,0,0,7,314.5c8.27,8.42,20.35,6,31.85-5.61L56.48,291,300.72,48.3l1.48,1.5,259,261.2c7.94,5.33,15.07,8.16,20.84,8.16a14.81,14.81,0,0,0,11-4.66,24.28,24.28,0,0,0,0-34.07Z"/><path d="M494.86,266.66a20,20,0,0,0-19.78,20V535.24a24.5,24.5,0,0,1-24.34,24.62H390.41V421.3c0-34.07-27.33-61.78-60.92-61.78h-59c-33.59,0-60.92,27.71-60.92,61.78V559.86H149.24a24.52,24.52,0,0,1-24.36-24.62V286.72a19.76,19.76,0,1,0-39.51,0V538.22c0,34.07,27.33,61.78,60.93,61.78H249.08V424.3a24.5,24.5,0,0,1,24.35-24.58h53.13a24.49,24.49,0,0,1,24.35,24.58V600H453.7c33.58,0,60.93-27.71,60.93-61.77V286.68a20,20,0,0,0-19.77-20Z"/></g></g></svg>