<svg xmlns="http://www.w3.org/2000/svg" viewBox="0 0 599.88 599.04"><defs><style>.cls-1{fill:none;}.cls-2{clip-path:url(#clip-path);}</style><clipPath id="clip-path" transform="translate(0 -0.15)"><rect class="cls-1" x="0.1" width="600" height="600"/></clipPath></defs><title>icon_my_sel</title><g id="图层_2" data-name="图层 2"><g id="图层_1-2" data-name="图层 1"><g class="cls-2"><path d="M299.94.15C134.55.15,0,134.51,0,299.68S134.55,599.2,299.94,599.2,599.88,464.84,599.88,299.68,465.33.15,299.94.15Zm169.12,492.4a21.44,21.44,0,0,0-13.58-20.25c-13.93-5.47-48.42-21.58-91.27-29.2V434c42.85-42,68.11-120.66,68.11-180.1,0-84.83-44.27-133.48-121.58-133.48C231.38,120.43,182,170.35,182,253.91c0,28.71,10.86,123,53.71,174.78v11.44c-21.43,5.28-65.82,16.71-94.95,27-10.08,3.57-14.34,13.87-12.45,24a255.22,255.22,0,0,1-85.95-191.5c0-141.57,115.6-256.74,257.34-256.74S556.9,158.11,556.9,299.68c0,76.86-34,145.78-87.84,192.87Z" transform="translate(0 -0.15)"/></g></g></g></svg>
