<svg xmlns="http://www.w3.org/2000/svg" viewBox="0 0 599.69 598.82">
    <defs>
        <style>.cls-1{fill:none;}.cls-2{clip-path:url(#clip-path);}</style>
        <clipPath id="clip-path" transform="translate(0 -0.38)">
            <rect class="cls-1" x="0.1" width="600" height="600"/>
        </clipPath>
    </defs>
    <title>icon_my_nor</title>
    <g id="图层_2" data-name="图层 2">
        <g id="图层_1-2" data-name="图层 1">
            <g class="cls-2">
                <path d="M299.84.38C134.5.38,0,134.68,0,299.78S134.5,599.2,299.84,599.2,599.69,464.89,599.69,299.78,465.19.38,299.84.38Zm-149.11,508a20.6,20.6,0,0,0,6.34-.9c42-14.86,83.53-25.55,105.77-27.26a21.4,21.4,0,0,0,19.76-21.33V419.44A21.38,21.38,0,0,0,275,403.12C239.51,373,226.85,306.37,226.85,254c0-60.16,28.21-90.65,83.85-90.65,53,0,78.77,29.64,78.77,90.65,0,59.43-26.3,126.89-59.86,153.58a21.32,21.32,0,0,0-8.07,16.72V461.1a21.41,21.41,0,0,0,18.89,21.24c24.89,3,67.65,17.34,99.37,29.83a19.67,19.67,0,0,0,3.24.6,256.12,256.12,0,0,1-292.31-4.36Zm318.18-15.8a21.26,21.26,0,0,0-13.43-20.26c-13.92-5.47-56.33-21.6-91.11-29.19v-9.09c44.64-42,67.94-120.62,67.94-180,0-84.79-44.31-133.43-121.61-133.43C231.37,120.61,184,170.49,184,254c0,28.7,4.17,122.93,55.75,174.71v11.46c-29.93,5.28-67.89,16.72-97,27-10.05,3.55-15.38,13.84-13.49,24C76.4,444.19,42.83,375.92,42.83,299.78c0-141.5,115.29-256.63,257-256.63s257,115.13,257,256.63c0,76.87-34.18,145.76-87.94,192.83Z"
                      transform="translate(0 -0.38)"/>
            </g>
        </g>
    </g>
</svg>
