<svg xmlns="http://www.w3.org/2000/svg" viewBox="0 0 599.79 648.96">
    <defs>
        <style>.cls-1{fill:none;}.cls-2{clip-path:url(#clip-path);}</style>
        <clipPath id="clip-path" transform="translate(0 -0.17)">
            <rect class="cls-1" x="0.11" width="600" height="650"/>
        </clipPath>
    </defs>
    <title>icon_shop_nor</title>
    <g id="图层_2" data-name="图层 2">
        <g id="图层_1-2" data-name="图层 1">
            <g class="cls-2">
                <path d="M471.17,649.13H128.62c-37.49,0-71.81-29-78.2-66.15L1,282c-3.23-18.88,1.63-37.84,13.37-51.84s29.49-22,48.68-22H536.79c19.23,0,37,8,48.72,22s16.56,33,13.26,52L549.38,582.82c-6.44,37.27-40.76,66.31-78.21,66.31ZM63,254.54c-5.65,0-10.42,1.94-13.4,5.52s-4.11,8.64-3.16,14.27l49.46,301c2.49,14.55,17.79,27.49,32.69,27.49H471.17c14.91,0,30.2-13,32.74-27.68L553.3,274.49c1-5.79-.11-10.84-3.09-14.41s-7.77-5.54-13.43-5.54Zm97.08,139.15a46.36,46.36,0,1,1,46.12-46.35,46.3,46.3,0,0,1-46.12,46.35Zm0-46.35a.14.14,0,0,0-.07,0l.05,23.15ZM438.3,393.69a46.36,46.36,0,1,1,46.14-46.35,46.3,46.3,0,0,1-46.14,46.35Zm0-46.35h-.05l0,23.18Zm23.07-161.76a23.11,23.11,0,0,1-23.07-23.17c0-66.33-73.71-115.89-139.64-115.89-67.44,0-137.2,43.25-137.2,115.61a23.08,23.08,0,1,1-46.15,0c0-101.38,93.23-162,183.37-162,87.87,0,185.78,66.63,185.78,162.24a23.14,23.14,0,0,1-23.09,23.17Z"
                      transform="translate(0 -0.17)"/>
            </g>
        </g>
    </g>
</svg>
