<svg xmlns="http://www.w3.org/2000/svg" viewBox="0 0 600 600"><title>资源 1</title><g id="图层_2" data-name="图层 2"><g id="图层_1-2" data-name="图层 1"><path d="M593,280.43,329.88,14a39.73,39.73,0,0,0-8-6.88,38.24,38.24,0,0,0-44.42.06,33.94,33.94,0,0,0-7.88,7.4L7,280.45A24.28,24.28,0,0,0,7,314.5c8.27,8.42,20.35,6,31.85-5.61L56.48,291l28.89-28.36V538.23c0,34.06,27.33,61.77,60.93,61.77H249.07V424.3a24.5,24.5,0,0,1,24.36-24.58h53.13a24.49,24.49,0,0,1,24.35,24.58V600H453.69c33.59,0,60.94-27.71,60.94-61.77V264.05L561.18,311c7.94,5.33,15.07,8.16,20.84,8.16a14.83,14.83,0,0,0,11-4.66,24.26,24.26,0,0,0,0-34.07Z"/></g></g></svg>